# AST/ASF file generated using VICON BodyLanguage
# -----------------------------------------------
:version 1.10
:name VICON
:units
  mass 1.0
  length 0.45
  angle deg
:documentation
   .ast/.asf automatically generated from VICON data using
   VICON BodyBuilder and BodyLanguage model FoxedUp or BRILLIANT.MOD
:root
   order TX TY TZ RX RY RZ
   axis XYZ
   position 0 0 0  
   orientation 0 0 0 
:bonedata
  begin
     id 1 
     name lhipjoint
     direction 0.64773 -0.699417 0.302095 
     length 2.48597 
     axis 0 0 0  XYZ
  end
  begin
     id 2 
     name lfemur
     direction 0.34202 -0.939693 0  
     length 6.71947  
     axis 0 0 20  XYZ
    dof rx ry rz
    limits (-160.0 20.0)
           (-70.0 70.0)
           (-60.0 70.0)
  end
  begin
     id 3 
     name ltibia
     direction 0.34202 -0.939693 0   
     length 8.08777   
     axis 0 0 20   XYZ
    dof rx
    limits (-10.0 170.0)
  end
  begin
     id 4 
     name lfoot
     direction 0.0808503 -0.222134 0.971658   
     length 2.08264   
     axis -90 7.62852e-016 20   XYZ
    dof rx rz
    limits (-45.0 90.0)
           (-70.0 20.0)
  end
  begin
     id 5 
     name ltoes
     direction 1.53502e-011 -4.22007e-011 1   
     length 1.04662   
     axis -90 7.62852e-016 20   XYZ
    dof rx
    limits (-90.0 20.0)
  end
  begin
     id 6 
     name rhipjoint
     direction -0.610924 -0.726792 0.313919   
     length 2.39233  
     axis 0 0 0  XYZ 
  end
  begin
     id 7 
     name rfemur
     direction -0.34202 -0.939693 0   
     length 6.96955   
     axis 0 0 -20   XYZ
    dof rx ry rz
    limits (-160.0 20.0)
           (-70.0 70.0)
           (-70.0 60.0)
  end
  begin
     id 8 
     name rtibia
     direction -0.34202 -0.939693 0   
     length 8.19584   
     axis 0 0 -20   XYZ
    dof rx
    limits (-10.0 170.0)
 end
 begin
     id 9 
     name rfoot
     direction -0.077777 -0.213691 0.9738   
     length 2.07539  
     axis -90 -7.62852e-016 -20   XYZ
    dof rx rz
    limits (-45.0 90.0)
           (-20.0 70.0)
  end
  begin
     id 10 
     name rtoes
     direction -1.53558e-011 -4.22006e-011 1   
     length 1.04381   
     axis -90 -7.62852e-016 -20   XYZ
    dof rx
    limits (-90.0 20.0)
  end
  begin
     id 11 
     name lowerback
     direction -0.00971646 0.996074 0.0879841   
     length 1.67643   
     axis 0 0 0   XYZ
    dof rx ry rz
    limits (-20.0 45.0)
           (-30.0 30.0)
           (-30.0 30.0)
  end
  begin
     id 12 
     name upperback
     direction 0.0127391 0.991676 0.128127   
     length 1.63741   
     axis 0 0 0   XYZ
    dof rx ry rz
    limits (-20.0 45.0)
           (-30.0 30.0)
           (-30.0 30.0)
  end
  begin
     id 13 
     name thorax
     direction 0.0167583 0.996049 0.0872067   
     length 1.65931   
     axis 0 0 0   XYZ
    dof rx ry rz
    limits (-20.0 45.0)
           (-30.0 30.0)
           (-30.0 30.0)
  end
  begin
     id 14 
     name lowerneck
     direction -0.0317829 0.998312 0.0486079   
     length 1.79021   
     axis 0 0 0   XYZ
    dof rx ry rz
    limits (-20.0 45.0)
           (-30.0 30.0)
           (-30.0 30.0)
  end
  begin
     id 15 
     name upperneck
     direction 0.0896851 0.972452 -0.215159   
     length 1.78797   
     axis 0 0 0   XYZ
    dof rx ry rz
    limits (-20.0 45.0)
           (-30.0 30.0)
           (-30.0 30.0)
  end
  begin
     id 16
     name head
     direction 0.0310949 0.996503 -0.0775582  
     length 1.81549  
     axis 0 0 0   XYZ
    dof rx ry rz
    limits (-20.0 45.0)
           (-30.0 30.0)
           (-30.0 30.0)
  end
  begin
     id 17 
     name lclavicle
     direction 0.853638 0.502051 -0.138733  
     length 3.31627  
     axis 0 0 0   XYZ
    dof ry rz
    limits (-20.0 10.0)
           (0.0 20.0)
  end
  begin
     id 18 
     name lhumerus
     direction 1 -4.48962e-011 -1.41788e-018   
     length 5.54893   
     axis 180 -30 -90   XYZ
    dof rx ry rz
    limits (-60.0 90.0)
           (-90.0 90.0)
           (-90.0 90.0)
  end
  begin
     id 19
     name lradius
     direction 1 -4.48962e-011 -4.95754e-027   
     length 3.02898   
     axis 180 -30 -90   XYZ
    dof rx
    limits (-10.0 170.0)
  end
  begin
     id 20
     name lwrist
     direction 1 -4.48952e-011 -1.03764e-026   
     length 1.51449   
     axis 9.09556e-015 90 90   XYZ
    dof ry
    limits (-180.0 0.0)
 end
  begin
     id 21 
     name lhand
     direction 1 -4.4902e-011 -2.07528e-026   
     length 0.640951   
     axis 1.3242e-014 90 90   XYZ
    dof rx rz
    limits (-90.0 90.0)
           (-45.0 45.0)
  end
  begin
     id 22 
     name lfingers
     direction 1 -4.49014e-011 -4.15056e-026   
     length 0.516751   
     axis 2.64841e-014 90 90   XYZ
    dof rx
    limits (0.0 90.0)
  end
  begin
     id 23
     name lthumb
     direction 0.707107 -6.35008e-011 0.707107   
     length 0.741954   
     axis -90 45 2.85299e-015   XYZ
    dof rx rz
    limits (-45.0 45.0)
           (-45.0 45.0)
  end
  begin
     id 24 
     name rclavicle
     direction -0.888531 0.455324 -0.0565039   
     length 3.20126  
     axis 0 0 0   XYZ 
    dof ry rz
    limits (-10.0 20.0)
           (-20.0 0.0)
  end
  begin
     id 25 
     name rhumerus
     direction -1 -4.48946e-011 -8.98298e-028  
     length 5.3519   
     axis 180 30 90   XYZ
    dof rx ry rz
    limits (-90.0 60.0)
           (-90.0 90.0)
           (-90.0 90.0)
  end
  begin
     id 26 
     name rradius
     direction -1 -4.4899e-011 -3.18779e-027   
     length 3.02531   
     axis 180 30 90   XYZ
    dof rx
    limits (-10.0 170.0)
  end
  begin
     id 27 
     name rwrist
     direction -1 -4.4897e-011 -1.03764e-026   
     length 1.51266   
     axis 9.09556e-015 -90 -90   XYZ
    dof ry
    limits (-180.0 0.0)
  end
  begin
     id 28
     name rhand
     direction -1 -4.48941e-011 -2.07528e-026   
     length 0.78389   
     axis 1.3242e-014 -90 -90   XYZ
    dof rx rz
    limits (-90.0 90.0)
           (-45.0 45.0)
  end
  begin
     id 29
     name rfingers
     direction -1 -4.49012e-011 -4.15056e-026   
     length 0.631992   
     axis 2.64841e-014 -90 -90   XYZ
    dof rx
    limits (0.0 90.0)
  end
  begin
     id 30
     name rthumb
     direction -0.707107 -6.3496e-011 0.707107   
     length 0.907418   
     axis -90 -45 -2.85299e-015   XYZ
    dof rx rz
    limits (-45.0 45.0)
           (-45.0 45.0)
  end
:hierarchy
  begin
    root lhipjoint rhipjoint lowerback
    lhipjoint lfemur
    lfemur ltibia
    ltibia lfoot
    lfoot ltoes
    rhipjoint rfemur
    rfemur rtibia
    rtibia rfoot
    rfoot rtoes
    lowerback upperback
    upperback thorax
    thorax lowerneck lclavicle rclavicle
    lowerneck upperneck
    upperneck head
    lclavicle lhumerus
    lhumerus lradius
    lradius lwrist
    lwrist lhand lthumb
    lhand lfingers
    rclavicle rhumerus
    rhumerus rradius
    rradius rwrist
    rwrist rhand rthumb
    rhand rfingers
  end

#!OML:ASF E:\Style3\Style3.ASF
:FULLY-SPECIFIED
:DEGREES
911
root -3.71393 13.8017 0.435191 -86.2029 95.3823 -135.591
lowerback 42.3071 -3.10741 -4.44858
upperback 7.86834 -5.4634 -6.99596
thorax -11.662 -1.77593 -2.9678
lowerneck -5.28275 1.65692 -11.5795
upperneck -19.3229 4.79026 10.3623
head -5.40348 3.03108 5.07098
rclavicle 0 2.25372e-014
rhumerus 45.2766 19.6139 -35.4599
rradius 127.231
rwrist 6.23153
rhand 19.9559 15.0299
rfingers 7.12502
rthumb 44.494 -8.6662
lclavicle 0 2.25372e-014
lhumerus 25.4362 -0.00710064 42.5348
lradius 138.976
lwrist 8.30561
lhand 8.16661 30.9501
lfingers 7.12502
lthumb 33.3854 57.8681
rfemur -112.105 -5.12391 14.0129
rtibia 83.1838
rfoot -19.4512 -6.67334
rtoes -19.9223
lfemur -109.609 -2.23134 -14.9017
ltibia 81.0088
lfoot -15.7549 17.0314
ltoes -17.0296
912
root -3.71393 13.8017 0.435191 -86.2029 95.3823 -135.591
lowerback 42.3071 -3.10741 -4.44858
upperback 7.86834 -5.4634 -6.99596
thorax -11.662 -1.77593 -2.9678
lowerneck -5.28275 1.65692 -11.5795
upperneck -19.3229 4.79026 10.3623
head -5.40348 3.03108 5.07098
rclavicle 0 2.25372e-014
rhumerus 45.2766 19.6139 -35.4599
rradius 127.231
rwrist 6.23153
rhand 19.9559 15.0299
rfingers 7.12502
rthumb 44.494 -8.6662
lclavicle 0 2.25372e-014
lhumerus 25.4362 -0.00710064 42.5348
lradius 138.976
lwrist 8.30561
lhand 8.16661 30.9501
lfingers 7.12502
lthumb 33.3854 57.8681
rfemur -112.105 -5.12391 14.0129
rtibia 83.1838
rfoot -19.4512 -6.67334
rtoes -19.9223
lfemur -109.609 -2.23134 -14.9017
ltibia 81.0088
lfoot -15.7549 17.0314
ltoes -17.0296
913
root -3.71393 13.8017 0.435191 -86.2029 95.3823 -135.591
lowerback 42.3071 -3.10741 -4.44858
upperback 7.86834 -5.4634 -6.99596
thorax -11.662 -1.77593 -2.9678
lowerneck -5.28275 1.65692 -11.5795
upperneck -19.3229 4.79026 10.3623
head -5.40348 3.03108 5.07098
rclavicle 0 2.25372e-014
rhumerus 45.2766 19.6139 -35.4599
rradius 127.231
rwrist 6.23153
rhand 19.9559 15.0299
rfingers 7.12502
rthumb 44.494 -8.6662
lclavicle 0 2.25372e-014
lhumerus 25.4362 -0.00710064 42.5348
lradius 138.976
lwrist 8.30561
lhand 8.16661 30.9501
lfingers 7.12502
lthumb 33.3854 57.8681
rfemur -112.105 -5.12391 14.0129
rtibia 83.1838
rfoot -19.4512 -6.67334
rtoes -19.9223
lfemur -109.609 -2.23134 -14.9017
ltibia 81.0088
lfoot -15.7549 17.0314
ltoes -17.0296
914
root -3.71393 13.8017 0.435191 -86.2029 95.3823 -135.591
lowerback 42.3071 -3.10741 -4.44858
upperback 7.86834 -5.4634 -6.99596
thorax -11.662 -1.77593 -2.9678
lowerneck -5.28275 1.65692 -11.5795
upperneck -19.3229 4.79026 10.3623
head -5.40348 3.03108 5.07098
rclavicle 0 2.25372e-014
rhumerus 45.2766 19.6139 -35.4599
rradius 127.231
rwrist 6.23153
rhand 19.9559 15.0299
rfingers 7.12502
rthumb 44.494 -8.6662
lclavicle 0 2.25372e-014
lhumerus 25.4362 -0.00710064 42.5348
lradius 138.976
lwrist 8.30561
lhand 8.16661 30.9501
lfingers 7.12502
lthumb 33.3854 57.8681
rfemur -112.105 -5.12391 14.0129
rtibia 83.1838
rfoot -19.4512 -6.67334
rtoes -19.9223
lfemur -109.609 -2.23134 -14.9017
ltibia 81.0088
lfoot -15.7549 17.0314
ltoes -17.0296
915
root -3.71393 13.8017 0.435191 -86.2029 95.3823 -135.591
lowerback 42.3071 -3.10741 -4.44858
upperback 7.86834 -5.4634 -6.99596
thorax -11.662 -1.77593 -2.9678
lowerneck -5.28275 1.65692 -11.5795
upperneck -19.3229 4.79026 10.3623
head -5.40348 3.03108 5.07098
rclavicle 0 2.25372e-014
rhumerus 45.2766 19.6139 -35.4599
rradius 127.231
rwrist 6.23153
rhand 19.9559 15.0299
rfingers 7.12502
rthumb 44.494 -8.6662
lclavicle 0 2.25372e-014
lhumerus 25.4362 -0.00710064 42.5348
lradius 138.976
lwrist 8.30561
lhand 8.16661 30.9501
lfingers 7.12502
lthumb 33.3854 57.8681
rfemur -112.105 -5.12391 14.0129
rtibia 83.1838
rfoot -19.4512 -6.67334
rtoes -19.9223
lfemur -109.609 -2.23134 -14.9017
ltibia 81.0088
lfoot -15.7549 17.0314
ltoes -17.0296
916
root -3.5752 14.0068 1.06857 -159.166 81.3211 -207.672
lowerback 45.1154 -3.81056 -2.58279
upperback 7.78328 -5.39406 -6.54471
thorax -12.7224 -1.67721 -3.43839
lowerneck -4.91548 1.7873 -10.2246
upperneck -19.9621 4.81164 8.77529
head -5.61836 3.08192 4.31144
rclavicle -4.53229e-014 -7.81721e-014
rhumerus 45.4112 19.5963 -37.8081
rradius 135.595
rwrist -9.29123
rhand 0.156631 21.6413
rfingers 7.12502
rthumb 25.7404 -6.63782
lclavicle 0 2.25372e-014
lhumerus 25.4362 -0.00710064 42.5348
lradius 138.976
lwrist 8.30561
lhand 8.16661 30.9501
lfingers 7.12502
lthumb 33.3854 57.8681
rfemur -107.925 -4.41028 15.536
rtibia 83.6394
rfoot -21.6362 -16.2899
rtoes -14.8658
lfemur -107.41 -3.65449 -10.4352
ltibia 76.5181
lfoot -14.5105 11.0912
ltoes -20.1154
